<svg xmlns="http://www.w3.org/2000/svg" version="1.1" xmlns:xlink="http://www.w3.org/1999/xlink" xmlns:svgjs="http://svgjs.dev/svgjs" viewBox="0 0 800 800" opacity="1"><defs><linearGradient x1="50%" y1="0%" x2="50%" y2="100%" id="nnneon-grad"><stop stop-color="hsl(206, 75%, 49%)" stop-opacity="1" offset="0%"></stop><stop stop-color="hsl(331, 90%, 56%)" stop-opacity="1" offset="100%"></stop></linearGradient><filter id="nnneon-filter" x="-100%" y="-100%" width="400%" height="400%" filterUnits="objectBoundingBox" primitiveUnits="userSpaceOnUse" color-interpolation-filters="sRGB">
	<feGaussianBlur stdDeviation="17 8" x="0%" y="0%" width="100%" height="100%" in="SourceGraphic" edgeMode="none" result="blur"></feGaussianBlur></filter><filter id="nnneon-filter2" x="-100%" y="-100%" width="400%" height="400%" filterUnits="objectBoundingBox" primitiveUnits="userSpaceOnUse" color-interpolation-filters="sRGB">
	<feGaussianBlur stdDeviation="10 17" x="0%" y="0%" width="100%" height="100%" in="SourceGraphic" edgeMode="none" result="blur"></feGaussianBlur></filter></defs><g stroke-width="16" stroke="url(#nnneon-grad)" fill="none"><path d="M390.15453447311313 268.8311077240801C394.18806732274857 260.68055931877115 405.8119356819102 260.68055931877115 409.84546853154563 268.8311077240801L534.8465408871988 521.4256101492044C538.4593648366679 528.7259531009138 533.147228436658 537.2818320131714 525.002172314641 537.2818320131714H274.9978306900178C266.85277456800077 537.2818320131714 261.54063816799083 528.7259531009138 265.15346211746 521.4256101492044L390.15453447311313 268.8311077240801Z " filter="url(#nnneon-filter)"></path><path d="M402.15453447311313 268.8311077240801C406.18806732274857 260.68055931877115 417.8119356819102 260.68055931877115 421.84546853154563 268.8311077240801L546.8465408871988 521.4256101492044C550.4593648366679 528.7259531009138 545.147228436658 537.2818320131714 537.002172314641 537.2818320131714H286.9978306900178C278.85277456800077 537.2818320131714 273.54063816799083 528.7259531009138 277.15346211746 521.4256101492044L402.15453447311313 268.8311077240801Z " filter="url(#nnneon-filter2)" opacity="0.25"></path><path d="M378.15453447311313 268.8311077240801C382.18806732274857 260.68055931877115 393.8119356819102 260.68055931877115 397.84546853154563 268.8311077240801L522.8465408871988 521.4256101492044C526.4593648366679 528.7259531009138 521.147228436658 537.2818320131714 513.002172314641 537.2818320131714H262.9978306900178C254.85277456800077 537.2818320131714 249.54063816799083 528.7259531009138 253.15346211745998 521.4256101492044L378.15453447311313 268.8311077240801Z " filter="url(#nnneon-filter2)" opacity="0.25"></path><path d="M390.15453447311313 268.8311077240801C394.18806732274857 260.68055931877115 405.8119356819102 260.68055931877115 409.84546853154563 268.8311077240801L534.8465408871988 521.4256101492044C538.4593648366679 528.7259531009138 533.147228436658 537.2818320131714 525.002172314641 537.2818320131714H274.9978306900178C266.85277456800077 537.2818320131714 261.54063816799083 528.7259531009138 265.15346211746 521.4256101492044L390.15453447311313 268.8311077240801Z "></path></g></svg>