<svg xmlns="http://www.w3.org/2000/svg" version="1.1" xmlns:xlink="http://www.w3.org/1999/xlink" xmlns:svgjs="http://svgjs.dev/svgjs" viewBox="0 0 800 800" opacity="1"><defs><linearGradient x1="50%" y1="0%" x2="50%" y2="100%" id="nnneon-grad"><stop stop-color="hsl(206, 75%, 49%)" stop-opacity="1" offset="0%"></stop><stop stop-color="hsl(331, 90%, 56%)" stop-opacity="1" offset="100%"></stop></linearGradient><filter id="nnneon-filter" x="-100%" y="-100%" width="400%" height="400%" filterUnits="objectBoundingBox" primitiveUnits="userSpaceOnUse" color-interpolation-filters="sRGB">
	<feGaussianBlur stdDeviation="17 8" x="0%" y="0%" width="100%" height="100%" in="SourceGraphic" edgeMode="none" result="blur"></feGaussianBlur></filter><filter id="nnneon-filter2" x="-100%" y="-100%" width="400%" height="400%" filterUnits="objectBoundingBox" primitiveUnits="userSpaceOnUse" color-interpolation-filters="sRGB">
	<feGaussianBlur stdDeviation="10 17" x="0%" y="0%" width="100%" height="100%" in="SourceGraphic" edgeMode="none" result="blur"></feGaussianBlur></filter></defs><g stroke-width="16" stroke="url(#nnneon-grad)" fill="none"><path d="M389.5307297165359 249.00486673496425C396.0091141679435 245.26524338971086 403.9908858320565 245.26524338971086 410.4692702834641 249.00591366199262L525.5307384068482 315.4365743916574C532.0091228582558 319.1761977369108 536.0000086903123 326.0890569050822 536.0000086903123 333.56935052261736V466.430671981947C536.0000086903123 473.91096559948215 532.0091228582558 480.8238247676535 525.5307384068482 484.5644950399352L410.4692702834641 550.9951557696C403.9908858320565 554.7347791148534 396.0091141679435 554.7347791148534 389.5307297165359 550.9941088425717L274.4692615931519 484.5634481129068C267.9908771417443 480.8238247676535 263.99999130968774 473.91096559948215 263.99999130968774 466.430671981947V333.56935052261736C263.99999130968774 326.0890569050822 267.9908771417443 319.1761977369108 274.4692615931519 315.4355274646291L389.5307297165359 249.00486673496425Z " filter="url(#nnneon-filter)"></path><path d="M401.5307297165359 249.00486673496425C408.0091141679435 245.26524338971086 415.9908858320565 245.26524338971086 422.4692702834641 249.00591366199262L537.5307384068482 315.4365743916574C544.0091228582558 319.1761977369108 548.0000086903123 326.0890569050822 548.0000086903123 333.56935052261736V466.430671981947C548.0000086903123 473.91096559948215 544.0091228582558 480.8238247676535 537.5307384068482 484.5644950399352L422.4692702834641 550.9951557696C415.9908858320565 554.7347791148534 408.0091141679435 554.7347791148534 401.5307297165359 550.9941088425717L286.4692615931519 484.5634481129068C279.9908771417443 480.8238247676535 275.99999130968774 473.91096559948215 275.99999130968774 466.430671981947V333.56935052261736C275.99999130968774 326.0890569050822 279.9908771417443 319.1761977369108 286.4692615931519 315.4355274646291L401.5307297165359 249.00486673496425Z " filter="url(#nnneon-filter2)" opacity="0.25"></path><path d="M377.5307297165359 249.00486673496425C384.0091141679435 245.26524338971086 391.9908858320565 245.26524338971086 398.4692702834641 249.00591366199262L513.5307384068482 315.4365743916574C520.0091228582558 319.1761977369108 524.0000086903123 326.0890569050822 524.0000086903123 333.56935052261736V466.430671981947C524.0000086903123 473.91096559948215 520.0091228582558 480.8238247676535 513.5307384068482 484.5644950399352L398.4692702834641 550.9951557696C391.9908858320565 554.7347791148534 384.0091141679435 554.7347791148534 377.5307297165359 550.9941088425717L262.4692615931519 484.5634481129068C255.9908771417443 480.8238247676535 251.99999130968774 473.91096559948215 251.99999130968774 466.430671981947V333.56935052261736C251.99999130968774 326.0890569050822 255.9908771417443 319.1761977369108 262.4692615931519 315.4355274646291L377.5307297165359 249.00486673496425Z " filter="url(#nnneon-filter2)" opacity="0.25"></path><path d="M389.5307297165359 249.00486673496425C396.0091141679435 245.26524338971086 403.9908858320565 245.26524338971086 410.4692702834641 249.00591366199262L525.5307384068482 315.4365743916574C532.0091228582558 319.1761977369108 536.0000086903123 326.0890569050822 536.0000086903123 333.56935052261736V466.430671981947C536.0000086903123 473.91096559948215 532.0091228582558 480.8238247676535 525.5307384068482 484.5644950399352L410.4692702834641 550.9951557696C403.9908858320565 554.7347791148534 396.0091141679435 554.7347791148534 389.5307297165359 550.9941088425717L274.4692615931519 484.5634481129068C267.9908771417443 480.8238247676535 263.99999130968774 473.91096559948215 263.99999130968774 466.430671981947V333.56935052261736C263.99999130968774 326.0890569050822 267.9908771417443 319.1761977369108 274.4692615931519 315.4355274646291L389.5307297165359 249.00486673496425Z "></path></g></svg>